<?xml version="1.0" standalone="no"?>
<!DOCTYPE svg PUBLIC "-//W3C//DTD SVG 20010904//EN"
 "http://www.w3.org/TR/2001/REC-SVG-20010904/DTD/svg10.dtd">
<svg version="1.0" xmlns="http://www.w3.org/2000/svg"
 width="978.284860pt" height="243.351892pt" viewBox="0 0 978.284860 243.351892"
 preserveAspectRatio="xMidYMid meet">
<metadata>
Created by potrace 1.16, written by Peter Selinger 2001-2019
</metadata>
<g transform="translate(-108.000000,435.000000) scale(0.100000,-0.100000)"
fill="#000000" stroke="none">
<path d="M1080 3145 l0 -1205 213 1 c457 1 919 17 979 33 168 46 347 174 447
319 157 229 200 596 103 877 -72 207 -197 352 -377 436 -161 75 -293 93 -682
94 l-203 0 0 325 0 325 -240 0 -240 0 0 -1205z m953 166 c180 -24 295 -140
332 -336 51 -267 -40 -516 -223 -609 -70 -35 -154 -46 -379 -46 l-193 0 0 500
0 500 198 0 c108 -1 228 -5 265 -9z"/>
<path d="M6450 4025 l0 -325 -87 0 c-49 0 -166 -3 -260 -7 l-173 -6 -143 -191
c-79 -105 -147 -197 -151 -204 -10 -17 14 -56 140 -223 l107 -142 24 29 c13
16 83 107 155 202 l131 172 128 0 129 0 0 -337 c1 -424 12 -636 38 -720 40
-127 123 -221 249 -281 75 -35 77 -35 252 -43 97 -4 224 -8 284 -8 l107 -1 0
184 0 183 -137 5 c-156 5 -208 21 -256 77 -47 56 -50 86 -51 526 l-1 410 223
3 222 2 0 185 0 185 -222 2 -223 3 -3 323 -2 322 -240 0 -240 0 0 -325z"/>
<path d="M7960 3695 c-317 -67 -554 -292 -642 -610 -29 -106 -32 -410 -5 -517
100 -399 360 -609 801 -647 448 -38 822 160 963 511 49 120 66 235 60 413 -6
193 -25 276 -96 420 -106 214 -275 354 -506 421 -82 23 -478 30 -575 9z m395
-360 c150 -39 257 -172 286 -355 16 -105 6 -327 -19 -407 -66 -210 -235 -312
-467 -283 -252 32 -375 206 -375 529 0 285 102 467 289 517 65 18 216 17 286
-1z"/>
<path d="M2951 3438 c1 -585 16 -1039 34 -1098 64 -204 217 -348 405 -381 41
-7 280 -13 643 -16 l577 -5 0 881 0 881 -245 0 -245 0 0 -696 0 -696 -262 4
c-168 3 -273 8 -290 16 -45 19 -107 82 -119 120 -9 26 -13 215 -16 645 l-5
607 -239 0 -239 0 1 -262z"/>
<path d="M4641 3668 c13 -18 157 -212 321 -430 164 -219 298 -405 298 -414 0
-22 -84 -141 -380 -534 l-251 -335 118 -6 c65 -4 178 -7 252 -8 l134 -1 32 34
c53 56 640 838 637 848 -1 5 -150 205 -330 444 l-327 434 -263 0 -263 0 22
-32z"/>
<path d="M9220 2819 l0 -880 234 3 c129 2 238 7 243 11 4 5 9 317 11 694 l3
686 252 -5 c269 -5 301 -11 356 -61 57 -53 56 -38 59 -709 l3 -618 241 0 241
0 -8 632 c-6 565 -9 640 -25 704 -48 185 -160 316 -327 381 -67 26 -72 26
-433 34 -201 4 -474 8 -607 8 l-243 1 0 -881z"/>
<path d="M5852 2662 c-17 -20 -75 -99 -131 -175 l-101 -137 148 -205 147 -204
267 0 268 -1 -203 278 c-111 152 -236 323 -277 379 -41 56 -78 103 -82 103 -3
0 -20 -17 -36 -38z"/>
</g>
</svg>
