<?xml version="1.0" standalone="no"?><!-- Generator: Gravit.io --><svg xmlns="http://www.w3.org/2000/svg" xmlns:xlink="http://www.w3.org/1999/xlink" style="isolation:isolate" viewBox="0 0 251.834 54.856" width="251.834" height="54.856"><defs><clipPath id="_clipPath_IZMNhcSjiuqOeVzHQgFh8D4v0QsElMmA"><rect width="251.834" height="54.856"/></clipPath></defs><g clip-path="url(#_clipPath_IZMNhcSjiuqOeVzHQgFh8D4v0QsElMmA)"><path d=" M 0 47.017 L 0 54.856 L 33.077 54.856 L 33.077 47.017 L 0 47.017 L 0 47.017 Z " fill="rgb(0,175,239)"/><path d=" M 24.011 15.303 L 9.056 15.303 L 9.056 0.042 C 4.991 0.344 1.923 1.161 0 1.826 L 0 40.028 L 0.584 40.028 C 4.21 39.787 7.068 39.135 9.056 38.523 L 9.056 23.226 L 24.011 23.226 L 24.011 39.999 C 28.098 39.684 31.173 38.847 33.067 38.183 L 33.067 0 L 32.753 0 C 29.016 0.213 26.065 0.866 24.011 1.491 L 24.011 15.303 Z " fill="rgb(26,53,83)"/><path d=" M 56.192 29.423 C 56.192 29.959 56.133 30.496 56.013 30.971 C 55.417 32.819 53.511 34.308 51.307 34.308 C 49.28 34.308 47.731 33.177 47.731 30.852 C 47.731 27.398 51.425 26.266 56.192 26.266 L 56.192 29.423 Z  M 64.95 22.81 C 64.95 15.899 61.912 10.178 52.199 10.178 C 46.898 10.178 42.905 11.667 40.879 12.799 L 42.548 18.64 C 44.453 17.447 47.611 16.436 50.591 16.436 C 55.061 16.436 55.894 18.64 55.894 20.248 L 55.894 20.606 C 45.586 20.606 38.793 24.179 38.793 31.748 C 38.793 36.394 42.31 40.684 48.208 40.684 C 51.664 40.684 54.643 39.432 56.55 37.109 L 56.728 37.109 L 57.265 40.028 L 57.321 40.028 C 60.6 39.81 63.263 39.258 65.211 38.699 C 65.021 37.128 64.95 35.083 64.95 32.999 L 64.95 22.81 Z " fill="rgb(26,53,83)"/><path d=" M 80.269 16.257 L 80.031 16.257 L 79.676 10.949 C 76.492 11.18 73.912 11.729 72.012 12.277 C 72.125 14.449 72.165 16.967 72.165 20.486 L 72.165 40.028 L 81.222 40.028 L 81.222 25.253 C 81.222 24.537 81.281 23.823 81.402 23.226 C 81.996 20.426 84.261 18.64 87.597 18.64 C 88.61 18.64 89.326 18.759 90.04 18.879 L 90.04 10.357 C 89.385 10.237 88.968 10.178 88.134 10.178 C 85.274 10.178 81.758 11.965 80.269 16.257 L 80.269 16.257 Z " fill="rgb(26,53,83)"/><path d=" M 109.825 17.21 C 112.209 17.21 113.818 17.627 114.889 18.103 L 116.32 11.37 C 114.413 10.655 111.792 10.237 109.408 10.237 C 98.564 10.237 92.726 17.21 92.726 25.729 C 92.726 34.845 98.742 40.626 108.157 40.626 C 111.613 40.626 114.651 40.028 116.26 39.255 L 115.187 32.582 C 113.818 33.176 112.149 33.534 110.005 33.534 C 105.595 33.534 102.02 30.674 102.02 25.371 C 101.961 20.606 105.059 17.21 109.825 17.21 L 109.825 17.21 Z " fill="rgb(26,53,83)"/><path d=" M 134.317 34.19 C 130.444 34.19 128.358 30.437 128.358 25.431 C 128.358 21.142 130.027 16.672 134.317 16.672 C 138.427 16.672 140.096 21.083 140.096 25.373 C 140.096 30.674 137.892 34.19 134.317 34.19 L 134.317 34.19 Z  M 134.614 10.178 C 125.201 10.178 119.004 16.197 119.004 25.67 C 119.004 35.084 125.558 40.684 134.078 40.684 C 141.884 40.684 149.451 35.798 149.451 25.134 C 149.451 16.316 143.493 10.178 134.614 10.178 L 134.614 10.178 Z " fill="rgb(26,53,83)"/><path d=" M 182.525 10.894 L 173.468 10.894 L 173.468 28.231 C 173.468 29.007 173.349 29.661 173.111 30.198 C 172.575 31.628 171.085 33.355 168.582 33.355 C 165.366 33.355 163.995 30.793 163.995 26.564 L 163.995 10.894 L 154.937 10.894 L 154.937 27.993 C 154.937 36.989 159.229 40.684 165.185 40.684 C 170.429 40.684 173.17 37.705 174.302 35.918 L 174.482 35.918 L 174.898 40.028 L 175.761 40.028 C 178.544 39.844 180.883 39.418 182.715 38.951 C 182.614 36.689 182.525 33.962 182.525 30.673 L 182.525 10.894 Z " fill="rgb(26,53,83)"/><path d=" M 197.902 16.257 L 197.665 16.257 L 197.309 10.932 C 194.147 11.144 191.566 11.669 189.642 12.206 C 189.758 14.396 189.799 16.928 189.799 20.486 L 189.799 40.028 L 198.856 40.028 L 198.856 25.253 C 198.856 24.537 198.916 23.823 199.034 23.226 C 199.632 20.426 201.896 18.64 205.232 18.64 C 206.245 18.64 206.959 18.759 207.673 18.879 L 207.673 10.357 C 207.019 10.237 206.602 10.178 205.768 10.178 C 202.907 10.178 199.393 11.965 197.902 16.257 L 197.902 16.257 Z " fill="rgb(26,53,83)"/><path d=" M 219.776 2.518 C 216.036 2.681 213.038 3.291 210.898 3.906 L 210.898 29.482 C 210.898 33.594 211.733 36.394 213.4 38.123 C 214.891 39.611 217.335 40.626 220.253 40.626 C 222.756 40.626 224.961 40.267 226.093 39.85 L 226.033 32.999 C 225.2 33.177 224.603 33.236 223.351 33.236 C 220.671 33.236 219.776 31.628 219.776 28.111 L 219.776 17.568 L 226.271 17.568 L 226.271 10.894 L 219.776 10.894 L 219.776 2.518 Z " fill="rgb(26,53,83)"/><path d=" M 243.97 22.215 C 240.394 20.963 239.263 20.249 239.263 18.819 C 239.263 17.388 240.515 16.495 242.72 16.495 C 245.16 16.495 247.724 17.447 249.034 18.162 L 250.583 11.906 C 248.796 11.013 245.817 10.178 242.42 10.178 C 235.21 10.178 230.564 14.29 230.564 19.772 C 230.505 23.225 232.828 26.503 238.905 28.53 C 242.243 29.661 243.136 30.377 243.136 31.925 C 243.136 33.414 242.003 34.308 239.263 34.308 C 236.582 34.308 233.126 33.177 231.457 32.163 L 229.849 38.598 C 232.052 39.789 235.449 40.684 239.263 40.684 C 247.606 40.684 251.834 36.692 251.834 31.21 C 251.774 26.98 249.511 24.121 243.97 22.215 L 243.97 22.215 Z " fill="rgb(26,53,83)"/></g></svg>